<svg xmlns="http://www.w3.org/2000/svg" xmlns:xlink="http://www.w3.org/1999/xlink" id="Layer_1" width="20" height="31" x="0" y="0" enable-background="new 0 0 20 31" version="1.1" viewBox="0 0 20 31" xml:space="preserve"><g><path fill="#FFF" d="M9.032,953.225l-8.226,7.258c-0.57,0.507-0.665,1.476-0.121,2.056c0.522,0.556,1.486,0.628,2.056,0.121 l5.806-5.126v23.876c0,0.802,0.65,1.452,1.452,1.452s1.452-0.65,1.452-1.452v-23.876l5.806,5.126 c0.57,0.507,1.55,0.449,2.056-0.121c0.507-0.57,0.495-1.456-0.121-2.056l-8.226-7.258c-0.237-0.211-0.602-0.354-0.968-0.363 C9.611,952.865,9.322,952.967,9.032,953.225z" transform="translate(0,-952.36218)"/></g></svg>