<svg xmlns="http://www.w3.org/2000/svg" xmlns:xlink="http://www.w3.org/1999/xlink" id="Layer_1" width="31" height="20" x="0" y="0" enable-background="new 0 0 31 20" version="1.1" viewBox="0 0 31 20" xml:space="preserve"><g><path d="M0.863,963.33l7.258,8.226c0.507,0.57,1.476,0.665,2.056,0.121c0.556-0.522,0.628-1.486,0.121-2.056l-5.126-5.806h23.876 c0.802,0,1.452-0.65,1.452-1.452s-0.65-1.452-1.452-1.452H5.172l5.126-5.806c0.507-0.57,0.449-1.55-0.121-2.056 c-0.57-0.507-1.456-0.495-2.056,0.121l-7.258,8.226c-0.211,0.237-0.354,0.602-0.363,0.968C0.503,962.751,0.605,963.04,0.863,963.33 z" transform="translate(0,-952.36218)"/></g></svg>