<svg xmlns="http://www.w3.org/2000/svg" xmlns:xlink="http://www.w3.org/1999/xlink" id="Layer_1" width="31" height="20" x="0" y="0" enable-background="new 0 0 31 20" version="1.1" viewBox="0 0 31 20" xml:space="preserve"><g><path fill="#FFF" d="M30.5,962.362c-0.009-0.366-0.152-0.73-0.363-0.968l-7.258-8.226c-0.6-0.616-1.486-0.628-2.056-0.121 s-0.628,1.486-0.121,2.056l5.126,5.806H1.952c-0.802,0-1.452,0.65-1.452,1.452s0.65,1.452,1.452,1.452h23.876l-5.126,5.806 c-0.507,0.57-0.435,1.535,0.121,2.056c0.58,0.545,1.55,0.449,2.056-0.121l7.258-8.226C30.395,963.04,30.497,962.751,30.5,962.362z" transform="translate(0,-952.36218)"/></g></svg>